<svg width="80" height="80" viewBox="0 0 80 80" fill="none" xmlns="http://www.w3.org/2000/svg">
<g clip-path="url(#clip0_689_723)">
<path d="M15.6599 72.9307L33.9943 2.41385C34.1583 1.78275 34.728 1.34229 35.3801 1.34229H44.6199C45.2719 1.34229 45.8416 1.78275 46.0057 2.41385L64.3401 72.9307" fill="#0F7A4F"/>
<path d="M38.9129 1.34229H35.3801C34.728 1.34229 34.1583 1.78275 33.9943 2.41385L15.6599 72.9307H34.2729L38.5868 2.41385C38.6254 1.7826 38.7594 1.34229 38.9129 1.34229Z" fill="#0A4C58"/>
<path d="M71.4989 72.9307H8.50106C7.71043 72.9307 7.06934 73.5718 7.06934 74.3624V77.226C7.06934 78.0166 7.71043 78.6577 8.50106 78.6577H71.4989C72.2895 78.6577 72.9306 78.0166 72.9306 77.226V74.3624C72.9306 73.5718 72.2895 72.9307 71.4989 72.9307Z" fill="#0A4C58"/>
<path d="M31.4093 77.226V74.3624C31.4093 73.5718 32.0504 72.9307 32.8411 72.9307H8.50106C7.71043 72.9307 7.06934 73.5718 7.06934 74.3624V77.226C7.06934 78.0166 7.71043 78.6577 8.50106 78.6577H32.8411C32.0504 78.6577 31.4093 78.0168 31.4093 77.226Z" fill="#0A4C58"/>
<path d="M19.3826 58.6128H60.6176L58.3841 50.0222H21.6162L19.3826 58.6128Z" fill="#E4EAF8"/>
<path d="M26.8279 29.9776H53.1723L50.9388 21.387H29.0613L26.8279 29.9776Z" fill="#E4EAF8"/>
<path d="M26.8279 29.9776H36.9008L37.4263 21.387H29.0613L26.8279 29.9776Z" fill="#C7CFE2"/>
<path d="M19.3826 58.6128H35.1488L35.6744 50.0222H21.6162L19.3826 58.6128Z" fill="#C7CFE2"/>
<path d="M52.8854 71.5884H50.0223C49.281 71.5884 48.6799 72.1893 48.6799 72.9307C48.6799 73.672 49.2809 74.2731 50.0223 74.2731H52.8854C53.6267 74.2731 54.2277 73.6721 54.2277 72.9307C54.2277 72.1893 53.6268 71.5884 52.8854 71.5884Z" fill="black"/>
<path d="M71.4989 71.5884H65.378L47.3047 2.07609C46.987 0.85375 45.883 0 44.62 0H35.3802C34.1172 0 33.0131 0.85375 32.6955 2.07609L14.6221 71.5884H8.50111C6.97143 71.5884 5.72705 72.8328 5.72705 74.3625V77.2261C5.72705 78.7558 6.97143 80.0002 8.50111 80.0002H71.4989C73.0286 80.0002 74.273 78.7558 74.273 77.2261V74.3625C74.273 72.8328 73.0286 71.5884 71.4989 71.5884ZM22.6539 51.3647H44.2955C45.0367 51.3647 45.6378 50.7638 45.6378 50.0223C45.6378 49.2811 45.0369 48.68 44.2955 48.68H23.3519L27.8655 31.3198H52.1341L56.6477 48.68H50.0219C49.2806 48.68 48.6795 49.2809 48.6795 50.0223C48.6795 50.7636 49.2805 51.3647 50.0219 51.3647H57.346L58.8816 57.2708H21.1185L22.6539 51.3647ZM35.2935 2.75156C35.3036 2.71219 35.3392 2.68469 35.38 2.68469H44.6199C44.6606 2.68469 44.6963 2.71219 44.7064 2.75156L49.2027 20.0448H47.1583C46.417 20.0448 45.8159 20.6458 45.8159 21.3872C45.8159 22.1284 46.4169 22.7295 47.1583 22.7295H49.9006L51.4363 28.6356H28.5636L30.0992 22.7295H41.4319C42.1731 22.7295 42.7742 22.1286 42.7742 21.3872C42.7742 20.6459 42.1733 20.0448 41.4319 20.0448H30.7972L35.2935 2.75156ZM71.5884 77.2259C71.5884 77.2753 71.5483 77.3155 71.4989 77.3155H8.50111C8.45174 77.3155 8.41158 77.2753 8.41158 77.2259V74.3623C8.41158 74.313 8.45174 74.2728 8.50111 74.2728H44.2953C45.0366 74.2728 45.6377 73.6719 45.6377 72.9305C45.6377 72.1892 45.0367 71.5881 44.2953 71.5881H17.3958L20.4203 59.955H59.5794L62.6041 71.5881H58.6127C57.8714 71.5881 57.2703 72.1891 57.2703 72.9305C57.2703 73.6717 57.8713 74.2728 58.6127 74.2728H71.4989C71.5483 74.2728 71.5884 74.313 71.5884 74.3623V77.2259Z" fill="black"/>
</g>
<defs>
<clipPath id="clip0_689_723">
<rect width="80" height="80" fill="white"/>
</clipPath>
</defs>
</svg>
